<svg width="40" height="40" viewBox="0 0 40 40" fill="none" xmlns="http://www.w3.org/2000/svg">
<rect width="12.578" height="3.1445" transform="matrix(-0.712022 0.702157 0.712022 0.702157 8.95581 28.9604)" fill="white"/>
<path fill-rule="evenodd" clip-rule="evenodd" d="M21.8615 33.3017C13.8475 33.3017 7.35077 26.6751 7.35077 18.5009C7.35077 10.3267 13.8475 3.70018 21.8615 3.70018C29.8756 3.70018 36.3723 10.3267 36.3723 18.5009C36.3723 26.6751 29.8756 33.3017 21.8615 33.3017ZM21.8615 37.0018C11.8439 37.0018 3.72308 28.7187 3.72308 18.5009C3.72308 8.28315 11.8439 0 21.8615 0C31.8791 0 40 8.28315 40 18.5009C40 28.7187 31.8791 37.0018 21.8615 37.0018Z" fill="white"/>
<path d="M20.7407 12.1519L20.7407 24.8101L23.7014 24.8101L23.7014 12.1519L20.7407 12.1519Z" fill="white"/>
<path d="M28.2634 17.2153L15.9177 17.2153L15.9177 20.251L28.2634 20.251L28.2634 17.2153Z" fill="white"/>
</svg>
