<svg width="40" height="40" fill="none" xmlns="http://www.w3.org/2000/svg"><path fill="#fff" d="M8.956 28.96 0 37.792 2.239 40l8.955-8.832z"/><path fill-rule="evenodd" clip-rule="evenodd" d="M21.861 33.302c-8.014 0-14.51-6.627-14.51-14.801S13.848 3.7 21.86 3.7c8.015 0 14.511 6.626 14.511 14.8s-6.496 14.8-14.51 14.8Zm0 3.7c-10.017 0-18.138-8.283-18.138-18.501C3.723 8.283 11.843 0 21.862 0 31.878 0 40 8.283 40 18.5c0 10.219-8.12 18.502-18.139 18.502Z" fill="#fff"/><path d="M20.74 12.152V24.81h2.961V12.152h-2.96Z" fill="#fff"/><path d="M28.263 17.215H15.918v3.036h12.345v-3.036Z" fill="#fff"/></svg>