<svg width="60" height="60" fill="none" xmlns="http://www.w3.org/2000/svg"><path fill="#fff" d="M13.434 43.44 0 56.688 3.36 60l13.433-13.248z"/><path fill-rule="evenodd" clip-rule="evenodd" d="M32.792 49.953c-12.02 0-21.766-9.94-21.766-22.202 0-12.26 9.745-22.2 21.766-22.2 12.021 0 21.767 9.94 21.767 22.2 0 12.262-9.746 22.201-21.767 22.201Zm0 5.55c-15.026 0-27.207-12.425-27.207-27.752C5.585 12.425 17.765 0 32.792 0 47.82 0 60 12.425 60 27.751c0 15.327-12.181 27.752-27.208 27.752Z" fill="#fff"/><path d="M31.111 18.228v18.987h4.441V18.228h-4.44Z" fill="#fff"/><path d="M42.395 25.823H23.877v4.553h18.518v-4.553Z" fill="#fff"/></svg>