<svg width="30" height="29" fill="none" xmlns="http://www.w3.org/2000/svg"><path fill="#fff" d="M6.582 21.046 0 27.41l1.646 1.59 6.581-6.362z"/><path fill-rule="evenodd" clip-rule="evenodd" d="M16.125 24.174c-6.087 0-10.797-4.901-10.797-10.664 0-5.762 4.71-10.663 10.797-10.663 6.087 0 10.797 4.901 10.797 10.663 0 5.763-4.71 10.664-10.797 10.664Zm0 2.666c-7.362 0-13.33-5.968-13.33-13.33C2.795 6.15 8.763.18 16.125.18c7.361 0 13.33 5.969 13.33 13.33 0 7.362-5.969 13.33-13.33 13.33Z" fill="#fff"/></svg>